:SAMPLES-PER-SECOND 30
:FULLY-SPECIFIED
:DEGREES
205
root  -5.69875 38.7435 -3.64606 -1.54048 -16.061 -3.32667
RightUpLeg  -8.4757 2.31842 11.0871
RightLeg  19.1689 -0.681127 -3.79232
RightFoot  -11.2344 0.100528 -3.90976
RightToes  1.74624e-010 -3.18055e-015 -2.98177e-016
Spine  1.32197 -1.70006 5.5718
Spine1  9.83366 -4.39462 13.9802
HEad  -4.26615 12.0433 -4.24761
LeftShoulder1  -3.88251e-019 9.70628e-020 -3.87848e-018
LeftArm  -35.3874 60.8282 -81.8778
LeftForeArm  -8.24385 -21.4274 1.03625
LeftHand  -1.20792 -6.44046 12.484
RightShoulder  7.08099 10.1195 34.1511
RightArm  13.2376 -39.5027 15.5887
RightForeArm  10.6609 17.9521 -7.80353
RightHand  -0.969619 3.59834 -12.4158
LeftUpLeg  -11.188 5.65943 5.35814
LeftLeg  32.4629 5.47779 13.968
LeftFoot  -10.6549 0.160677 -8.89566
LeftToes  7.37594e-011 2.64622e-011 -6.25182e-011
206
root  -5.68548 38.8442 -3.58876 -1.28075 -15.6869 -3.4812
RightUpLeg  -7.94892 2.46022 11.1058
RightLeg  17.8547 -1.22358 -3.39761
RightFoot  -10.6545 0.119871 -3.98897
RightToes  1.74624e-010 -3.18055e-015 -2.98177e-016
Spine  0.862626 -1.80684 4.88546
Spine1  9.47896 -4.72761 14.3709
HEad  -3.59068 12.6631 -4.38319
LeftShoulder1  -3.88251e-019 9.70628e-020 -3.87848e-018
LeftArm  -37.826 60.9039 -82.9441
LeftForeArm  -6.22899 -19.7375 0.362854
LeftHand  -1.15233 -6.01327 12.3755
RightShoulder  7.05082 10.0952 34.0476
RightArm  15.7218 -39.3632 15.7329
RightForeArm  6.55314 19.1891 -8.93848
RightHand  -0.956973 3.60488 -12.2479
LeftUpLeg  -9.11166 5.0817 4.42848
LeftLeg  27.6411 8.72146 13.5378
LeftFoot  -10.7283 0.137486 -8.05161
LeftToes  7.37594e-011 2.64622e-011 -6.25182e-011
207
root  -5.69527 38.8712 -3.58865 -0.897335 -14.76 -3.54709
RightUpLeg  -8.17573 2.55748 11.1139
RightLeg  17.4869 -2.15478 -3.47267
RightFoot  -10.4917 0.122442 -3.87984
RightToes  1.74624e-010 -3.18055e-015 -2.98177e-016
Spine  0.697071 -1.96686 3.43154
Spine1  8.9234 -5.28896 15.9837
HEad  -3.24873 12.9018 -4.33218
LeftShoulder1  -3.88251e-019 9.70628e-020 -3.87848e-018
LeftArm  -39.7152 60.443 -83.5142
LeftForeArm  -5.27951 -17.4401 -0.334161
LeftHand  -1.10722 -5.32769 12.6636
RightShoulder  7.08069 10.0997 34.1937
RightArm  17.7921 -38.8859 15.832
RightForeArm  4.46967 20.0177 -9.78565
RightHand  -1.04627 3.94314 -12.8993
LeftUpLeg  -9.37796 4.92398 4.49164
LeftLeg  27.129 9.23558 13.5317
LeftFoot  -10.9183 0.128132 -8.30785
LeftToes  7.37594e-011 2.64622e-011 -6.25182e-011
208
root  -5.71896 38.7726 -3.66039 -0.771389 -13.0202 -3.46181
RightUpLeg  -9.1009 2.24938 11.0015
RightLeg  18.6945 -3.38803 -4.21536
RightFoot  -11.0909 0.0967 -3.44983
RightToes  1.74624e-010 -3.18055e-015 -2.98177e-016
Spine  1.51755 -2.33389 1.84339
Spine1  7.82585 -5.97305 18.2432
HEad  -3.37477 12.4717 -4.14101
LeftShoulder1  -3.88251e-019 9.70628e-020 -3.87848e-018
LeftArm  -39.9458 59.6501 -83.0317
LeftForeArm  -4.9645 -15.0666 -0.754456
LeftHand  -1.10906 -4.9631 13.1296
RightShoulder  7.09551 10.0986 34.2732
RightArm  18.8935 -39.069 16.3044
RightForeArm  3.3085 20.6981 -10.5589
RightHand  -1.18916 4.24322 -14.2029
LeftUpLeg  -12.119 5.45031 5.3584
LeftLeg  31.1107 4.09152 12.4219
LeftFoot  -10.2782 0.217793 -9.94431
LeftToes  7.37594e-011 2.64622e-011 -6.25182e-011
209
root  -5.71694 38.6127 -3.75007 -1.26726 -10.9888 -3.3501
RightUpLeg  -9.72318 1.55703 10.7799
RightLeg  20.5716 -4.52749 -5.20535
RightFoot  -12.0431 0.064793 -2.8574
RightToes  1.74624e-010 -3.18055e-015 -2.98177e-016
Spine  3.01555 -2.75455 1.65392
Spine1  6.95944 -6.27349 19.0084
HEad  -4.18918 11.497 -3.71889
LeftShoulder1  -3.88251e-019 9.70628e-020 -3.87848e-018
LeftArm  -38.3521 58.5538 -81.2105
LeftForeArm  -4.22927 -13.2241 -0.898629
LeftHand  -1.12893 -4.92563 13.4087
RightShoulder  7.07494 10.1008 34.1613
RightArm  18.9248 -40.2967 17.3396
RightForeArm  1.88536 21.4339 -11.3296
RightHand  -1.26609 4.17956 -15.2032
LeftUpLeg  -15.4318 6.23167 6.66796
LeftLeg  37.1865 -4.17662 8.65651
LeftFoot  -8.26722 0.481802 -11.8625
LeftToes  7.37594e-011 2.64622e-011 -6.25182e-011
210
root  -5.67869 38.5111 -3.81415 -2.21687 -9.72705 -3.31448
RightUpLeg  -9.38936 0.943655 10.5691
RightLeg  21.6927 -5.10942 -5.77307
RightFoot  -12.617 0.0505668 -2.50734
RightToes  1.74624e-010 -3.18055e-015 -2.98177e-016
Spine  4.03522 -2.80273 3.35222
Spine1  7.40659 -5.71023 17.0956
HEad  -5.61135 10.0943 -3.04376
LeftShoulder1  -3.88251e-019 9.70628e-020 -3.87848e-018
LeftArm  -35.6687 57.0979 -78.5541
LeftForeArm  -3.25912 -12.4647 -1.02826
LeftHand  -1.13811 -4.90367 13.5441
RightShoulder  7.07567 10.1358 34.0872
RightArm  18.5858 -41.6112 18.6266
RightForeArm  0.461213 21.9766 -11.7891
RightHand  -1.24873 4.05157 -15.188
LeftUpLeg  -17.7378 7.02802 8.21283
LeftLeg  43.0644 -10.7704 3.71227
LeftFoot  -5.51696 0.979545 -14.8531
LeftToes  7.37594e-011 2.64622e-011 -6.25182e-011
211
root  -5.62074 38.4767 -3.84888 -3.07634 -9.68001 -3.40633
RightUpLeg  -8.65333 0.713958 10.5388
RightLeg  21.9915 -4.99383 -5.84134
RightFoot  -12.7406 0.0483738 -2.4797
RightToes  1.74624e-010 -3.18055e-015 -2.98177e-016
Spine  4.09337 -2.31863 5.9551
Spine1  9.03503 -4.40538 13.8594
HEad  -7.127 8.53222 -2.37761
LeftShoulder1  -3.88251e-019 9.70628e-020 -3.87848e-018
LeftArm  -33.1125 55.6594 -76.1948
LeftForeArm  -3.29324 -13.1206 -1.19211
LeftHand  -1.14955 -4.799 13.8177
RightShoulder  7.13478 10.1971 34.2585
RightArm  18.4332 -41.6965 19.873
RightForeArm  1.36608 21.5889 -11.4287
RightHand  -1.2421 4.57112 -14.3641
LeftUpLeg  -18.8976 7.99543 9.75878
LeftLeg  47.0752 -13.2633 1.16288
LeftFoot  -3.70462 1.558 -18.9795
LeftToes  7.37594e-011 2.64622e-011 -6.25182e-011
212
root  -5.55978 38.4607 -3.84687 -3.54204 -10.2343 -3.55059
RightUpLeg  -8.1848 0.72467 10.6266
RightLeg  22.1092 -4.52229 -5.7652
RightFoot  -12.76 0.0480431 -2.48143
RightToes  1.74624e-010 -3.18055e-015 -2.98177e-016
Spine  3.62542 -1.66217 8.10224
Spine1  10.6894 -3.07218 11.2347
HEad  -7.8523 7.37148 -2.02214
LeftShoulder1  -3.88251e-019 9.70628e-020 -3.87848e-018
LeftArm  -31.8674 55.1283 -74.9103
LeftForeArm  -4.55313 -15.1807 -1.09686
LeftHand  -1.17845 -4.75444 14.2179
RightShoulder  7.22677 10.2582 34.5989
RightArm  17.3779 -40.4229 20.9908
RightForeArm  7.53878 20.0623 -9.85463
RightHand  -1.36559 6.17959 -13.6366
LeftUpLeg  -19.3572 8.91325 10.8108
LeftLeg  48.5873 -12.0683 2.64681
LeftFoot  -3.75962 1.70803 -20.8302
LeftToes  7.37594e-011 2.64622e-011 -6.25182e-011
213
root  -5.51593 38.4814 -3.8054 -3.71227 -10.6402 -3.54414
RightUpLeg  -7.90169 0.756336 10.5663
RightLeg  22.0236 -4.16939 -5.65411
RightFoot  -12.7119 0.0485989 -2.41383
RightToes  1.74624e-010 -3.18055e-015 -2.98177e-016
Spine  3.04479 -1.20615 9.02786
Spine1  11.5297 -2.23684 9.67762
HEad  -6.97646 6.94244 -2.07886
LeftShoulder1  -3.88251e-019 9.70628e-020 -3.87848e-018
LeftArm  -31.4788 55.9967 -74.7701
LeftForeArm  -6.90074 -18.1353 -0.411155
LeftHand  -1.21546 -4.90147 14.4428
RightShoulder  7.29728 10.3037 34.8609
RightArm  14.2534 -38.9565 21.903
RightForeArm  18.019 18.1303 -7.64371
RightHand  -1.61599 8.17285 -13.7873
LeftUpLeg  -19.2272 9.15004 10.9815
LeftLeg  47.8433 -8.29859 7.2154
LeftFoot  -5.47405 1.20261 -17.9825
LeftToes  7.37594e-011 2.64622e-011 -6.25182e-011
214
root  -5.48427 38.5502 -3.73955 -3.73619 -10.787 -3.34893
RightUpLeg  -7.62935 0.75858 10.2906
RightLeg  21.6351 -4.0163 -5.48019
RightFoot  -12.5351 0.0515306 -2.38677
RightToes  1.74624e-010 -3.18055e-015 -2.98177e-016
Spine  2.45359 -0.925903 9.0014
Spine1  11.571 -1.79408 8.72752
HEad  -4.47415 6.98264 -2.49122
LeftShoulder1  -3.88251e-019 9.70628e-020 -3.87848e-018
LeftArm  -30.6416 57.7255 -75.3266
LeftForeArm  -10.0681 -20.9473 0.719889
LeftHand  -1.24132 -5.18474 14.3452
RightShoulder  7.30723 10.317 34.8823
RightArm  11.1975 -38.4069 22.4663
RightForeArm  25.9365 16.6703 -6.40363
RightHand  -1.79776 9.19689 -14.2784
LeftUpLeg  -18.4057 8.09405 10.4514
LeftLeg  45.4973 -2.60231 13.1001
LeftFoot  -8.34434 0.506912 -12.6268
LeftToes  7.37594e-011 2.64622e-011 -6.25182e-011
215
root  -5.43018 38.6056 -3.66161 -3.66381 -10.8263 -3.2196
RightUpLeg  -7.50001 0.742068 10.0359
RightLeg  21.3671 -3.92759 -5.36233
RightFoot  -12.4213 0.0532555 -2.35321
RightToes  1.74624e-010 -3.18055e-015 -2.98177e-016
Spine  1.87368 -0.704051 8.89261
Spine1  11.2917 -1.48782 8.06139
HEad  -1.31042 7.094 -3.09499
LeftShoulder1  -3.88251e-019 9.70628e-020 -3.87848e-018
LeftArm  -29.6923 59.3109 -75.8552
LeftForeArm  -12.2193 -22.5637 1.49138
LeftHand  -1.25126 -5.44802 14.104
RightShoulder  7.26492 10.2912 34.7222
RightArm  9.84192 -38.8458 22.5522
RightForeArm  27.228 16.2506 -6.38613
RightHand  -1.73491 8.91306 -14.0456
LeftUpLeg  -16.9499 5.69531 9.67376
LeftLeg  42.2508 3.60081 17.7638
LeftFoot  -11.5755 0.0782872 -8.59795
LeftToes  7.37594e-011 2.64622e-011 -6.25182e-011
